<?xml version="1.0" encoding="utf-8"?>
<!-- Generator: Adobe Illustrator 27.5.0, SVG Export Plug-In . SVG Version: 6.00 Build 0)  -->
<svg version="1.1" id="Calque_2_00000147212005025186538410000008815718496715371650_"
	 xmlns="http://www.w3.org/2000/svg" xmlns:xlink="http://www.w3.org/1999/xlink" x="0px" y="0px" viewBox="0 0 335.3 177.7"
	 style="enable-background:new 0 0 335.3 177.7;" xml:space="preserve">
<style type="text/css">
	.st0{fill:#FFFFFF;}
	.st1{fill:#141414;}
	.st2{fill:#BCCCFD;}
	.st3{fill:#F4D74A;}
</style>
<g id="OBJECTS">
	<rect x="90.1" y="50.8" width="155.1" height="121.9"/>
	<rect x="90.1" y="64.7" class="st0" width="155.1" height="108.1"/>
	<path class="st0" d="M97.9,57.5c0,1.2-1,2.3-2.3,2.3s-2.3-1-2.3-2.3s1-2.3,2.3-2.3S97.9,56.2,97.9,57.5z"/>
	<path class="st0" d="M107.5,57.5c0,1.2-1,2.3-2.3,2.3s-2.3-1-2.3-2.3s1-2.3,2.3-2.3S107.5,56.2,107.5,57.5z"/>
	<path class="st0" d="M117.1,57.5c0,1.2-1,2.3-2.3,2.3s-2.3-1-2.3-2.3s1-2.3,2.3-2.3S117.1,56.2,117.1,57.5z"/>
	<path class="st0" d="M191.8,61.5H128c-2.1,0-3.9-1.7-3.9-3.9l0,0c0-2.1,1.7-3.9,3.9-3.9h63.8c2.1,0,3.9,1.7,3.9,3.9l0,0
		C195.7,59.8,194,61.5,191.8,61.5z"/>
	<path class="st0" d="M235.8,61.5h-30.2c-2.1,0-3.9-1.7-3.9-3.9l0,0c0-2.1,1.7-3.9,3.9-3.9h30.2c2.1,0,3.9,1.7,3.9,3.9l0,0
		C239.6,59.8,237.9,61.5,235.8,61.5z"/>
	<path class="st1" d="M246,173.6H89.2V50H246V173.6z M90.9,171.9h153.5V51.7H90.9V171.9L90.9,171.9z"/>
	
		<rect x="109.8" y="58.2" transform="matrix(9.201904e-02 -0.9958 0.9958 9.201904e-02 30.0524 193.628)" class="st1" width="22.8" height="44.3"/>
	<path class="st1" d="M67.6,159.8h9.1c0.2,0,0.4-0.1,0.5-0.3s0.1-0.4-0.1-0.6l-8.8-9.5l-0.8,0.7l8,8.6h-7.9L67.6,159.8L67.6,159.8z"
		/>
	<path class="st1" d="M67.2,50.8h10.3V164H67.2V50.8z M76.4,51.9h-8.2V163h8.2V51.9z"/>
	<rect x="65.8" y="158.5" class="st0" width="13.1" height="14.4"/>
	<path class="st1" d="M67.6,120.8h9.1c0.2,0,0.4-0.1,0.5-0.3c0.1-0.2,0.1-0.4-0.1-0.6l-8.8-9.5l-0.8,0.7l8,8.6h-7.9
		C67.6,119.8,67.6,120.8,67.6,120.8z"/>
	<path class="st1" d="M67.6,130.6h9.1c0.2,0,0.4-0.1,0.5-0.3s0.1-0.4-0.1-0.6l-8.8-9.5l-0.8,0.7l8,8.6h-7.9L67.6,130.6L67.6,130.6z"
		/>
	<path class="st1" d="M67.6,140.3h9.1c0.2,0,0.4-0.1,0.5-0.3s0.1-0.4-0.1-0.6l-8.8-9.5l-0.8,0.7l8,8.6h-7.9L67.6,140.3L67.6,140.3z"
		/>
	<path class="st1" d="M67.6,150.1h9.1c0.2,0,0.4-0.1,0.5-0.3s0.1-0.4-0.1-0.6l-8.8-9.5l-0.8,0.7l8,8.6h-7.9L67.6,150.1L67.6,150.1z"
		/>
	<path class="st1" d="M67.6,111.3h9.1c0.2,0,0.4-0.1,0.5-0.3c0.1-0.2,0.1-0.4-0.1-0.6l-8.8-9.5l-0.8,0.7l8,8.6h-7.9
		C67.6,110.3,67.6,111.3,67.6,111.3z"/>
	<path class="st1" d="M67.6,101.8h9.1c0.2,0,0.4-0.1,0.5-0.3c0.1-0.2,0.1-0.4-0.1-0.6l-8.8-9.5l-0.8,0.7l8,8.6h-7.9
		C67.6,100.7,67.6,101.8,67.6,101.8z"/>
	<path class="st1" d="M67.6,92.3h9.1c0.2,0,0.4-0.1,0.5-0.3c0.1-0.2,0.1-0.4-0.1-0.6l-8.8-9.5l-0.8,0.7l8,8.6h-7.9
		C67.6,91.2,67.6,92.3,67.6,92.3z"/>
	<path class="st1" d="M67.6,82.8h9.1c0.2,0,0.4-0.1,0.5-0.3c0.1-0.2,0.1-0.4-0.1-0.6l-8.8-9.5l-0.8,0.7l8,8.6h-7.9
		C67.6,81.7,67.6,82.8,67.6,82.8z"/>
	<path class="st1" d="M67.6,73.3h9.1c0.2,0,0.4-0.1,0.5-0.3c0.1-0.2,0.1-0.4-0.1-0.6l-8.8-9.5l-0.8,0.7l8,8.6h-7.9
		C67.6,72.2,67.6,73.3,67.6,73.3z"/>
	<path class="st1" d="M67.6,63.8h9.1c0.2,0,0.4-0.1,0.5-0.3s0.1-0.4-0.1-0.6l-8.8-9.5l-0.8,0.7l8,8.6h-7.9
		C67.6,62.7,67.6,63.8,67.6,63.8z"/>
	<path class="st1" d="M67.6,54.2h9.1c0.2,0,0.4-0.1,0.5-0.3s0.1-0.4-0.1-0.6l-8.8-9.5l-0.8,0.7l8,8.6h-7.9
		C67.6,53.2,67.6,54.2,67.6,54.2z"/>
	<rect x="67.2" y="40.3" class="st0" width="16.7" height="14.1"/>
	<rect x="42.1" y="40.3" class="st0" width="16.7" height="8.1"/>
	<path class="st1" d="M42.3,41.3H125c0.3,0,0.5-0.2,0.5-0.5s-0.2-0.5-0.5-0.5H42.3c-0.3,0-0.5,0.2-0.5,0.5S42,41.3,42.3,41.3z"/>
	<rect x="120.6" y="43.3" class="st0" width="0.5" height="24.3"/>
	<rect x="61.3" y="171.3" class="st1" width="22.1" height="4.1"/>
	<path class="st1" d="M75.5,41.2c0.1,0,0.1,0,0.2-0.1l4.4-4.4h40.4l4.1,4.1c0.1,0.1,0.3,0.1,0.4,0s0.1-0.3,0-0.4l-4.3-4.3H79.9
		l-4.6,4.6c-0.1,0.1-0.1,0.3,0,0.4C75.3,41.2,75.4,41.2,75.5,41.2L75.5,41.2z"/>
	<path class="st1" d="M42,41.2c0.1,0,0.2,0,0.2-0.1l4.4-8.4h10.7l4.2,8.2c0.1,0.1,0.2,0.2,0.3,0.1c0.1-0.1,0.2-0.2,0.1-0.3l-4.3-8.4
		H46.3L41.7,41c-0.1,0.1,0,0.3,0.1,0.4C41.9,41.2,41.9,41.2,42,41.2L42,41.2z"/>
	<circle class="st0" cx="120.9" cy="43.3" r="1.9"/>
	<path class="st1" d="M109.4,36.7c0.1,0,0.2-0.1,0.2-0.2c0-0.1,0-0.3-0.2-0.3l-39-11.9c-0.1,0-0.1,0-0.2,0l-18.5,7.8
		c-0.1,0.1-0.2,0.2-0.1,0.3c0.1,0.1,0.2,0.2,0.3,0.1l18.4-7.8L109.4,36.7C109.3,36.7,109.4,36.7,109.4,36.7L109.4,36.7z"/>
	<path class="st1" d="M76.5,41.2c0.1,0,0.1,0,0.2,0c0.3-0.1,0.4-0.4,0.3-0.7l-6.2-16.2c-0.1-0.2-0.3-0.4-0.5-0.3
		c-0.2,0-0.4,0.2-0.5,0.4l-3.2,15.8c-0.1,0.3,0.1,0.6,0.4,0.6c0.3,0.1,0.6-0.1,0.6-0.4l2.8-14L76,40.9
		C76.1,41.1,76.3,41.2,76.5,41.2z"/>
	<path class="st2" d="M69.3,24.5c0,0.6,0.5,1.1,1.1,1.1s1.1-0.5,1.1-1.1s-0.5-1.1-1.1-1.1S69.3,24,69.3,24.5z"/>
	<path class="st1" d="M115,41.3c0.1,0,0.1,0,0.2-0.1l5.2-4.2v3.9c0,0.2,0.1,0.3,0.3,0.3s0.3-0.1,0.3-0.3v-4.5c0-0.1-0.1-0.2-0.2-0.2
		s-0.2,0-0.3,0l-5.6,4.5c-0.1,0.1-0.1,0.3,0,0.4C114.8,41.2,114.9,41.2,115,41.3L115,41.3z"/>
	<path class="st1" d="M110,41.3c0.1,0,0.1,0,0.2-0.1l5.2-4.2v3.9c0,0.2,0.1,0.3,0.3,0.3s0.3-0.1,0.3-0.3v-4.5c0-0.1-0.1-0.2-0.2-0.2
		s-0.2,0-0.3,0l-5.6,4.5c-0.1,0.1-0.1,0.3,0,0.4C109.8,41.2,109.9,41.2,110,41.3L110,41.3z"/>
	<path class="st1" d="M105,41.3c0.1,0,0.1,0,0.2-0.1l5.2-4.2v3.9c0,0.2,0.1,0.3,0.3,0.3s0.3-0.1,0.3-0.3v-4.5c0-0.1-0.1-0.2-0.2-0.2
		s-0.2,0-0.3,0l-5.6,4.5c-0.1,0.1-0.1,0.3,0,0.4C104.8,41.2,104.9,41.2,105,41.3L105,41.3z"/>
	<path class="st1" d="M100,41.3c0.1,0,0.1,0,0.2-0.1l5.2-4.2v3.9c0,0.2,0.1,0.3,0.3,0.3s0.3-0.1,0.3-0.3v-4.5c0-0.1-0.1-0.2-0.2-0.2
		s-0.2,0-0.3,0l-5.6,4.5c-0.1,0.1-0.1,0.3,0,0.4C99.8,41.2,99.9,41.2,100,41.3L100,41.3z"/>
	<path class="st1" d="M94.9,41.3c0.1,0,0.1,0,0.2-0.1l5.2-4.2v3.9c0,0.2,0.1,0.3,0.3,0.3s0.3-0.1,0.3-0.3v-4.5
		c0-0.1-0.1-0.2-0.2-0.2s-0.2,0-0.3,0l-5.6,4.5c-0.1,0.1-0.1,0.3,0,0.4C94.8,41.2,94.9,41.2,94.9,41.3L94.9,41.3z"/>
	<path class="st1" d="M89.9,41.3c0.1,0,0.1,0,0.2-0.1l5.2-4.2v3.9c0,0.2,0.1,0.3,0.3,0.3s0.3-0.1,0.3-0.3v-4.5
		c0-0.1-0.1-0.2-0.2-0.2s-0.2,0-0.3,0l-5.6,4.5c-0.1,0.1-0.1,0.3,0,0.4C89.8,41.2,89.9,41.2,89.9,41.3L89.9,41.3z"/>
	<path class="st1" d="M84.9,41.3c0.1,0,0.1,0,0.2-0.1l5.2-4.2v3.9c0,0.2,0.1,0.3,0.3,0.3s0.3-0.1,0.3-0.3v-4.5
		c0-0.1-0.1-0.2-0.2-0.2s-0.2,0-0.3,0l-5.6,4.5c-0.1,0.1-0.1,0.3,0,0.4C84.8,41.2,84.8,41.2,84.9,41.3L84.9,41.3z"/>
	<path class="st1" d="M79.9,41.3c0.1,0,0.1,0,0.2-0.1l5.2-4.2v3.9c0,0.2,0.1,0.3,0.3,0.3s0.3-0.1,0.3-0.3v-4.5
		c0-0.1-0.1-0.2-0.2-0.2s-0.2,0-0.3,0l-5.6,4.5c-0.1,0.1-0.1,0.3,0,0.4C79.8,41.2,79.8,41.2,79.9,41.3L79.9,41.3z"/>
	<path class="st1" d="M50.3,41.3c0.1,0,0.2,0,0.2-0.1l6.7-7.9V41c0,0.2,0.1,0.3,0.3,0.3s0.3-0.1,0.3-0.3v-8.4c0-0.1-0.1-0.2-0.2-0.2
		s-0.2,0-0.3,0.1L50.1,41c-0.1,0.1-0.1,0.3,0,0.4C50.2,41.2,50.3,41.3,50.3,41.3z"/>
	<path class="st1" d="M45.1,41.3c0.1,0,0.2,0,0.2-0.1l5.1-7.8v7.5c0,0.2,0.1,0.3,0.3,0.3s0.3-0.1,0.3-0.3v-8.4
		c0-0.1-0.1-0.2-0.2-0.2c-0.1,0-0.2,0-0.3,0.1l-5.6,8.5c-0.1,0.1,0,0.3,0.1,0.4C45,41.3,45.1,41.3,45.1,41.3L45.1,41.3z"/>
	<path class="st1" d="M119.2,68.3c0,0.9,0.7,1.7,1.7,1.7s1.7-0.7,1.7-1.7s-0.7-1.7-1.7-1.7S119.2,67.3,119.2,68.3z"/>
	
		<rect x="197.4" y="76.1" transform="matrix(0.9958 -9.201907e-02 9.201907e-02 0.9958 -7.0743 20.4717)" class="st1" width="42.1" height="21.7"/>
	<path class="st1" d="M269.3,129.5h-8.7c-0.2,0-0.4-0.1-0.5-0.3s0-0.4,0.1-0.5l8.4-9l0.7,0.7l-7.6,8.2h7.5L269.3,129.5L269.3,129.5z
		"/>
	<path class="st1" d="M269.8,133.5H260V26h9.8V133.5z M261,132.5h7.8V27H261V132.5L261,132.5z"/>
	<rect x="258.6" y="128.3" class="st0" width="12.5" height="13.7"/>
	<path class="st1" d="M269.3,92.4h-8.7c-0.2,0-0.4-0.1-0.5-0.3s0-0.4,0.1-0.5l8.4-9l0.7,0.7l-7.6,8.2h7.5L269.3,92.4L269.3,92.4z"/>
	<path class="st1" d="M269.3,101.7h-8.7c-0.2,0-0.4-0.1-0.5-0.3s0-0.4,0.1-0.5l8.4-9l0.7,0.7l-7.6,8.2h7.5L269.3,101.7L269.3,101.7z
		"/>
	<path class="st1" d="M269.3,111h-8.7c-0.2,0-0.4-0.1-0.5-0.3s0-0.4,0.1-0.5l8.4-9l0.7,0.7l-7.6,8.2h7.5L269.3,111L269.3,111z"/>
	<path class="st1" d="M269.3,120.2h-8.7c-0.2,0-0.4-0.1-0.5-0.3s0-0.4,0.1-0.5l8.4-9l0.7,0.7l-7.6,8.2h7.5L269.3,120.2L269.3,120.2z
		"/>
	<path class="st1" d="M269.3,83.4h-8.7c-0.2,0-0.4-0.1-0.5-0.3s0-0.4,0.1-0.5l8.4-9l0.7,0.7l-7.6,8.2h7.5L269.3,83.4L269.3,83.4z"/>
	<path class="st1" d="M269.3,74.4h-8.7c-0.2,0-0.4-0.1-0.5-0.3s0-0.4,0.1-0.5l8.4-9l0.7,0.7l-7.6,8.2h7.5L269.3,74.4L269.3,74.4z"/>
	<path class="st1" d="M269.3,65.3h-8.7c-0.2,0-0.4-0.1-0.5-0.3s0-0.4,0.1-0.5l8.4-9l0.7,0.7l-7.6,8.2h7.5L269.3,65.3L269.3,65.3z"/>
	<path class="st1" d="M269.3,56.3h-8.7c-0.2,0-0.4-0.1-0.5-0.3s0-0.4,0.1-0.5l8.4-9l0.7,0.7l-7.6,8.2h7.5L269.3,56.3L269.3,56.3z"/>
	<path class="st1" d="M269.3,47.3h-8.7c-0.2,0-0.4-0.1-0.5-0.3s0-0.4,0.1-0.5l8.4-9l0.7,0.7l-7.6,8.2h7.5L269.3,47.3L269.3,47.3z"/>
	<path class="st1" d="M269.3,38.2h-8.7c-0.2,0-0.4-0.1-0.5-0.3s0-0.4,0.1-0.5l8.4-9l0.7,0.7l-7.6,8.2h7.5L269.3,38.2L269.3,38.2z"/>
	<path class="st1" d="M269.3,29.2h-8.7c-0.2,0-0.4-0.1-0.5-0.3c-0.1-0.2,0-0.4,0.1-0.5l8.4-9l0.7,0.7l-7.6,8.2h7.5L269.3,29.2
		L269.3,29.2z"/>
	<rect x="253.9" y="16" class="st0" width="15.9" height="13.4"/>
	<rect x="277.8" y="16" class="st0" width="15.9" height="7.7"/>
	<path class="st1" d="M293.4,17h-78.5c-0.3,0-0.5-0.2-0.5-0.5s0.2-0.5,0.5-0.5h78.5c0.3,0,0.5,0.2,0.5,0.5S293.7,17,293.4,17z"/>
	<rect x="218.5" y="18.8" class="st0" width="0.5" height="56"/>
	<rect x="254.4" y="140.4" class="st1" width="21" height="3.9"/>
	<path class="st1" d="M261.9,16.8c-0.1,0-0.1,0-0.2-0.1l-4.2-4.2h-38.4l-3.9,3.9c-0.1,0.1-0.3,0.1-0.4,0c-0.1-0.1-0.1-0.3,0-0.4
		l4.1-4.1h38.8l4.3,4.3c0.1,0.1,0.1,0.3,0,0.4C262,16.8,262,16.8,261.9,16.8L261.9,16.8z"/>
	<path class="st1" d="M293.7,16.8c-0.1,0-0.2,0-0.2-0.1l-4.2-8h-10.2l-3.9,7.8c-0.1,0.1-0.2,0.2-0.3,0.1c-0.1-0.1-0.2-0.2-0.1-0.3
		l4.1-8h10.8l4.3,8.3c0.1,0.1,0,0.3-0.1,0.3C293.8,16.8,293.7,16.9,293.7,16.8L293.7,16.8z"/>
	<path class="st0" d="M220.6,18.8c0,1-0.8,1.8-1.8,1.8s-1.8-0.8-1.8-1.8s0.8-1.8,1.8-1.8S220.6,17.8,220.6,18.8z"/>
	<path class="st1" d="M229.7,12.6c-0.1,0-0.2-0.1-0.2-0.2c0-0.1,0-0.3,0.2-0.3l37.1-11.3c0.1,0,0.1,0,0.2,0l17.6,7.4
		c0.1,0.1,0.2,0.2,0.1,0.3c0,0.1-0.2,0.2-0.3,0.1l-17.5-7.4L229.7,12.6L229.7,12.6L229.7,12.6z"/>
	<path class="st1" d="M260.9,16.9c-0.1,0-0.1,0-0.2,0c-0.3-0.1-0.4-0.4-0.3-0.6l5.8-15.4c0.1-0.2,0.3-0.3,0.5-0.3s0.4,0.2,0.5,0.4
		l3,15c0,0.3-0.1,0.5-0.4,0.6c-0.3,0-0.5-0.1-0.6-0.4l-2.7-13.3l-5.2,13.7C261.3,16.8,261.1,16.9,260.9,16.9z"/>
	<path class="st2" d="M267.8,1c0,0.6-0.5,1-1,1s-1-0.5-1-1s0.5-1,1-1S267.8,0.4,267.8,1z"/>
	<path class="st1" d="M224.4,16.9c-0.1,0-0.1,0-0.2-0.1l-4.9-4v3.7c0,0.1-0.1,0.2-0.2,0.2s-0.2-0.1-0.2-0.2v-4.2
		c0-0.1,0.1-0.2,0.1-0.2c0.1,0,0.2,0,0.3,0l5.3,4.3c0.1,0.1,0.1,0.2,0,0.4C224.5,16.9,224.4,16.9,224.4,16.9L224.4,16.9z"/>
	<path class="st1" d="M229.1,16.9c-0.1,0-0.1,0-0.2-0.1l-4.9-4v3.7c0,0.1-0.1,0.2-0.2,0.2s-0.2-0.1-0.2-0.2v-4.2
		c0-0.1,0.1-0.2,0.1-0.2c0.1,0,0.2,0,0.3,0l5.3,4.3c0.1,0.1,0.1,0.2,0,0.4C229.3,16.9,229.2,16.9,229.1,16.9L229.1,16.9z"/>
	<path class="st1" d="M233.9,16.9c-0.1,0-0.1,0-0.2-0.1l-4.9-4v3.7c0,0.1-0.1,0.2-0.2,0.2s-0.2-0.1-0.2-0.2v-4.2
		c0-0.1,0.1-0.2,0.1-0.2c0.1,0,0.2,0,0.3,0l5.3,4.3c0.1,0.1,0.1,0.2,0,0.4C234,16.9,234,16.9,233.9,16.9L233.9,16.9z"/>
	<path class="st1" d="M238.6,16.9c-0.1,0-0.1,0-0.2-0.1l-4.9-4v3.7c0,0.1-0.1,0.2-0.2,0.2s-0.2-0.1-0.2-0.2v-4.2
		c0-0.1,0.1-0.2,0.1-0.2c0.1,0,0.2,0,0.3,0l5.3,4.3c0.1,0.1,0.1,0.2,0,0.4C238.8,16.9,238.7,16.9,238.6,16.9L238.6,16.9z"/>
	<path class="st1" d="M243.4,16.9c-0.1,0-0.1,0-0.2-0.1l-4.9-4v3.7c0,0.1-0.1,0.2-0.2,0.2s-0.2-0.1-0.2-0.2v-4.2
		c0-0.1,0.1-0.2,0.1-0.2c0.1,0,0.2,0,0.3,0l5.3,4.3c0.1,0.1,0.1,0.2,0,0.4C243.5,16.9,243.5,16.9,243.4,16.9L243.4,16.9z"/>
	<path class="st1" d="M248.2,16.9c-0.1,0-0.1,0-0.2-0.1l-4.9-4v3.7c0,0.1-0.1,0.2-0.2,0.2s-0.2-0.1-0.2-0.2v-4.2
		c0-0.1,0.1-0.2,0.1-0.2c0.1,0,0.2,0,0.3,0l5.3,4.3c0.1,0.1,0.1,0.2,0,0.4C248.3,16.9,248.2,16.9,248.2,16.9L248.2,16.9z"/>
	<path class="st1" d="M252.9,16.9c-0.1,0-0.1,0-0.2-0.1l-4.9-4v3.7c0,0.1-0.1,0.2-0.2,0.2s-0.2-0.1-0.2-0.2v-4.2
		c0-0.1,0.1-0.2,0.1-0.2c0.1,0,0.2,0,0.3,0l5.3,4.3c0.1,0.1,0.1,0.2,0,0.4C253.1,16.9,253,16.9,252.9,16.9L252.9,16.9z"/>
	<path class="st1" d="M257.7,16.9c-0.1,0-0.1,0-0.2-0.1l-4.9-4v3.7c0,0.1-0.1,0.2-0.2,0.2s-0.2-0.1-0.2-0.2v-4.2
		c0-0.1,0.1-0.2,0.1-0.2c0.1,0,0.2,0,0.3,0l5.3,4.3c0.1,0.1,0.1,0.2,0,0.4C257.8,16.9,257.8,16.9,257.7,16.9L257.7,16.9z"/>
	<path class="st1" d="M285.8,16.9c-0.1,0-0.1,0-0.2-0.1l-6.4-7.5v7.3c0,0.1-0.1,0.2-0.2,0.2s-0.2-0.1-0.2-0.2v-8
		c0-0.1,0.1-0.2,0.2-0.2s0.2,0,0.3,0.1l6.8,8.1c0.1,0.1,0.1,0.3,0,0.4C285.9,16.9,285.8,16.9,285.8,16.9L285.8,16.9z"/>
	<path class="st1" d="M290.7,16.9c-0.1,0-0.2,0-0.2-0.1l-4.9-7.4v7.2c0,0.1-0.1,0.2-0.2,0.2s-0.2-0.1-0.2-0.2v-8
		c0-0.1,0.1-0.2,0.2-0.2s0.2,0,0.3,0.1l5.3,8.1c0.1,0.1,0,0.3-0.1,0.4C290.8,16.9,290.8,16.9,290.7,16.9L290.7,16.9z"/>
	<path class="st1" d="M220.4,75.5c0,0.9-0.7,1.6-1.6,1.6s-1.6-0.7-1.6-1.6s0.7-1.6,1.6-1.6S220.4,74.6,220.4,75.5z"/>
	<polygon points="285.2,126.2 283.8,167.7 287.4,167.7 289.6,126.2 	"/>
	<polygon points="280.9,151.6 283.2,151.6 282.8,174.3 261.5,173.2 261.7,171.9 280.3,172.7 	"/>
	<path d="M312.1,129.7h12.7v31.5h-31.3v-2.3c0-8.8,3-17.3,8.4-24.3l0,0C304.4,131.5,308.1,129.7,312.1,129.7L312.1,129.7z"/>
	<path d="M320.1,149.4h4.4c4.2,0,7.6,3.3,7.6,7.4v12.1H320v3.8h-25v-9.5h-6.2v-0.4c0-2.7,2.2-4.8,5-4.8h26.3L320.1,149.4
		L320.1,149.4z"/>
	<ellipse cx="292.3" cy="168.9" rx="9" ry="8.8"/>
	<path class="st3" d="M296.9,168.9c0,2.5-2.1,4.5-4.6,4.5s-4.6-2-4.6-4.5s2.1-4.5,4.6-4.5S296.9,166.4,296.9,168.9z"/>
	<ellipse cx="326.2" cy="168.9" rx="9" ry="8.8"/>
	<path class="st3" d="M330.8,168.9c0,2.5-2.1,4.5-4.6,4.5s-4.6-2-4.6-4.5s2.1-4.5,4.6-4.5S330.8,166.4,330.8,168.9z"/>
	<path class="st0" d="M298.1,149.8h12v-16.3C310.1,133.5,302.5,131.7,298.1,149.8z"/>
	<rect x="281.6" y="160" width="3.1" height="1.2"/>
	<rect x="283.3" y="128.7" width="8.9" height="1.2"/>
	<rect x="313.6" y="133.3" class="st3" width="8.7" height="1.6"/>
	<rect x="314" y="136.8" class="st0" width="7.9" height="13"/>
	<path d="M61.5,145.2l-15.7-29.6c-0.6-1.3-2-2.3-3.5-2.3c-1.3,0-2.5,0.7-3.2,1.7l0,0l-15,20c-0.2,0-0.4,0-0.6,0h-6.8
		c-2.7,0-4.9,2.2-4.9,4.9v6h-6c-1.6,0-2.9,1.3-2.9,2.9v6.9c0,1.6,1.3,2.9,2.9,2.9h7.9v2.1H6.8c-3.8,0-6.8,3.1-6.8,6.8
		s3.1,6.8,6.8,6.8h23.6c3.8,0,6.8-3.1,6.8-6.8s-3.1-6.8-6.8-6.8h-7v-2.1h7.9c0.5,0,0.9-0.4,0.9-0.9v-3h1l0,0c0,0,0,0,0.1,0l0,0
		c0,0,0,0,0.1,0s0,0,0,0l0,0l0,0c0,0,0,0,0.1,0l0,0c0,0,0.1-0.1,0.2-0.1l0,0l0,0l0,0l0,0l0,0l0,0l0,0c0,0,0,0,0-0.1l0,0
		c0,0,0,0,0-0.1s0.1-0.2,0.1-0.3V154v-3.5c0-1.7-0.5-3.4-1.5-4.9l-1.5-2.2l10.1-17l15,22.2c0.3,0.6,0.9,1.1,1.6,1.3v1.5l-0.3-0.7
		c-0.1-0.2-0.3-0.4-0.5-0.5s-0.5-0.1-0.7,0l-12.6,5.1l-2.2-1.8c-0.4-0.3-1-0.3-1.3,0.1c-0.3,0.4-0.3,1,0.1,1.3l6.8,5.6
		c1.2,1,2.8,1.6,4.3,1.6c0.9,0,1.7-0.2,2.5-0.5l3.1-1.3c1.3-0.5,2.2-1.8,2.4-3.1c0-0.1,0-0.1,0-0.2v-7.1c1.1-0.4,2-1.5,2-2.7
		C61.8,146.2,61.7,145.7,61.5,145.2L61.5,145.2L61.5,145.2z"/>
	<path class="st0" d="M3.9,167.3c0,1.6,1.3,2.9,2.9,2.9s2.9-1.3,2.9-2.9c0-1-0.6-2-1.4-2.5c-0.4-0.2-0.9-0.4-1.4-0.4
		C5.2,164.4,3.9,165.7,3.9,167.3L3.9,167.3z"/>
	<path class="st0" d="M14.7,170.2c1.6,0,2.9-1.3,2.9-2.9c0-1-0.5-2-1.4-2.5c-0.4-0.2-0.9-0.4-1.4-0.4c-1.6,0-2.9,1.3-2.9,2.9
		S13.1,170.2,14.7,170.2L14.7,170.2z"/>
	<path class="st0" d="M22.6,170.2c1.6,0,2.9-1.3,2.9-2.9c0-1-0.5-2-1.4-2.5c-0.4-0.2-0.9-0.4-1.5-0.4c-1.6,0-2.9,1.3-2.9,2.9
		S21,170.2,22.6,170.2L22.6,170.2z"/>
	<path class="st0" d="M30.4,170.2c1.6,0,2.9-1.3,2.9-2.9c0-1-0.5-2-1.4-2.5c-0.4-0.2-0.9-0.4-1.5-0.4c-1.6,0-2.9,1.3-2.9,2.9
		S28.8,170.2,30.4,170.2L30.4,170.2z"/>
	<path class="st3" d="M7.8,151.5h1c0.5,0,0.9-0.4,0.9-0.9s-0.4-0.9-0.9-0.9h-1c-0.5,0-0.9,0.4-0.9,0.9S7.3,151.5,7.8,151.5
		L7.8,151.5z"/>
	<path class="st3" d="M7.8,154.5h1c0.5,0,0.9-0.4,0.9-0.9s-0.4-0.9-0.9-0.9h-1c-0.5,0-0.9,0.4-0.9,0.9S7.3,154.5,7.8,154.5
		L7.8,154.5z"/>
	<polygon class="st0" points="18.5,138.2 18.5,150.8 31.2,150.8 31.2,147.6 24.5,138.1 	"/>
</g>
</svg>
